<?xml version="1.0" encoding="UTF-8"?>
<svg id="Layer_2" data-name="Layer 2" xmlns="http://www.w3.org/2000/svg" viewBox="0 0 30.57 29.89">
  <defs>
    <style>
      .cls-1 {
        fill: #ab4a9c;
      }

      .cls-1, .cls-2 {
        stroke: #231f20;
        stroke-miterlimit: 10;
        stroke-width: .5px;
      }

      .cls-3 {
        fill: #231f20;
        stroke-width: 0px;
      }

      .cls-2 {
        fill: none;
      }
    </style>
  </defs>
  <g id="Hand-drawn_Icon_Set" data-name="Hand-drawn Icon Set">
    <path class="cls-1" d="m16.77,10.96c2.06-.25,3.98,1.13,4.38,3.13.42,2.09-.98,4.07-2.92,4.59-1.88.5-3.9-.49-4.59-2.09-.87-2,.38-4.82,3.13-5.63"/>
    <path class="cls-2" d="m18.17,11.1c.78-1.48.89-3.47.61-4.94C18.17,2.98,15.24-.24,12.56.31c-2.79.58-4.61,5.12-3.31,8.49.83,2.16,2.97,3.93,5.04,4.26"/>
    <path class="cls-2" d="m.27,15c.28-2.45,3.26-4.01,5.45-4.36,3.19-.51,7.23,1.14,7.62,3.85.41,2.82-3.23,6.08-6.84,6.01-3.19-.06-6.54-2.71-6.22-5.51Z"/>
    <path class="cls-2" d="m17.85,18.61c1.4,1.9,1.7,5.23.32,7.62-1.6,2.76-5.54,4.4-7.83,2.77-2.01-1.43-1.92-4.79-1.16-6.88.84-2.31,3-4.44,5.12-4.9"/>
    <path class="cls-2" d="m18.34,11.13c-.08-1.95,1.3-4.07,2.66-5.24,2.45-2.11,6.75-2.83,8.5-.74,1.83,2.18.45,6.87-2.66,8.71-1.66.99-3.86,1.19-5.62.64"/>
    <path class="cls-2" d="m18.6,18.73c0-.13.02-.26.04-.38"/>
    <path class="cls-2" d="m21.45,14.91c1.9-.43,4.24.57,5.63,1.7,2.51,2.04,3.96,6.15,2.21,8.24-1.83,2.18-6.69,1.64-9.04-1.09-1.17-1.36-1.77-3.3-1.65-5.03"/>
    <path class="cls-2" d="m21.22,14.97c.08-.02.15-.04.23-.06"/>
    <path class="cls-3" d="m16.81,11.19c.32,0,.32-.5,0-.5s-.32.5,0,.5h0Z"/>
    <path class="cls-3" d="m16.74,11.1c.32,0,.32-.5,0-.5s-.32.5,0,.5h0Z"/>
    <path class="cls-3" d="m16.75,11.08c.32,0,.32-.5,0-.5s-.32.5,0,.5h0Z"/>
    <path class="cls-3" d="m16.75,11.07c.32,0,.32-.5,0-.5s-.32.5,0,.5h0Z"/>
    <path class="cls-3" d="m16.75,11.06c.32,0,.32-.5,0-.5s-.32.5,0,.5h0Z"/>
    <path class="cls-3" d="m16.75,11.05c.32,0,.32-.5,0-.5s-.32.5,0,.5h0Z"/>
    <path class="cls-3" d="m16.74,11.05c.32,0,.32-.5,0-.5s-.32.5,0,.5h0Z"/>
    <path class="cls-3" d="m16.74,11.04c.32,0,.32-.5,0-.5s-.32.5,0,.5h0Z"/>
    <path class="cls-3" d="m16.74,11.04c.32,0,.32-.5,0-.5s-.32.5,0,.5h0Z"/>
  </g>
</svg>