<?xml version="1.0" encoding="UTF-8"?>
<svg id="Layer_2" data-name="Layer 2" xmlns="http://www.w3.org/2000/svg" viewBox="0 0 90.82 88.82">
  <defs>
    <style>
      .cls-1 {
        fill: #ab4a9c;
      }

      .cls-1, .cls-2 {
        stroke-width: 2px;
      }

      .cls-1, .cls-2, .cls-3 {
        stroke: #231f20;
        stroke-miterlimit: 10;
      }

      .cls-2, .cls-3 {
        fill: none;
      }

      .cls-4 {
        fill: #231f20;
        stroke-width: 0px;
      }
    </style>
  </defs>
  <g id="Hand-drawn_Icon_Set" data-name="Hand-drawn Icon Set">
    <path class="cls-1" d="m49.8,32.62c6.09-.75,11.76,3.34,12.94,9.25,1.24,6.17-2.89,12.03-8.63,13.56-5.56,1.49-11.51-1.46-13.56-6.16-2.57-5.9,1.13-14.25,9.25-16.64"/>
    <path class="cls-2" d="m53.94,33.05c2.3-4.37,2.63-10.26,1.79-14.6C53.92,9.08,45.27-.46,37.36,1.19c-8.23,1.71-13.61,15.11-9.78,25.07,2.45,6.37,8.77,11.61,14.89,12.59"/>
    <path class="cls-2" d="m1.06,44.57c.82-7.23,9.62-11.83,16.09-12.86,9.42-1.5,21.34,3.37,22.5,11.37,1.2,8.32-9.55,17.95-20.21,17.76C10.02,60.67.12,52.83,1.06,44.57Z"/>
    <path class="cls-2" d="m52.99,55.23c4.13,5.61,5.02,15.46.95,22.49-4.72,8.15-16.37,13-23.14,8.17-5.93-4.23-5.68-14.15-3.44-20.31,2.48-6.81,8.87-13.1,15.12-14.47"/>
    <path class="cls-2" d="m54.42,33.15c-.25-5.75,3.84-12.02,7.86-15.49,7.22-6.24,19.92-8.37,25.11-2.17,5.4,6.44,1.32,20.29-7.84,25.74-4.9,2.91-11.42,3.53-16.59,1.9"/>
    <path class="cls-3" d="m55.2,55.58c.03-.38.06-.76.11-1.13"/>
    <path class="cls-2" d="m63.63,44.31c5.63-1.26,12.52,1.67,16.64,5.03,7.4,6.02,11.71,18.16,6.52,24.35-5.4,6.44-19.75,4.84-26.72-3.23-3.46-4.01-5.21-9.76-4.88-14.87"/>
    <path class="cls-3" d="m62.95,44.48c.22-.06.45-.12.67-.17"/>
    <path class="cls-4" d="m49.91,33.07c.64,0,.64-1,0-1s-.64,1,0,1h0Z"/>
    <path class="cls-4" d="m49.72,32.81c.64,0,.64-1,0-1s-.64,1,0,1h0Z"/>
    <path class="cls-4" d="m49.73,32.75c.64,0,.64-1,0-1s-.64,1,0,1h0Z"/>
    <path class="cls-4" d="m49.74,32.71c.64,0,.64-1,0-1s-.64,1,0,1h0Z"/>
    <path class="cls-4" d="m49.73,32.69c.64,0,.64-1,0-1s-.64,1,0,1h0Z"/>
    <path class="cls-4" d="m49.73,32.66c.64,0,.64-1,0-1s-.64,1,0,1h0Z"/>
    <path class="cls-4" d="m49.72,32.65c.64,0,.64-1,0-1s-.64,1,0,1h0Z"/>
    <path class="cls-4" d="m49.72,32.64c.64,0,.64-1,0-1s-.64,1,0,1h0Z"/>
    <path class="cls-4" d="m49.72,32.64c.64,0,.64-1,0-1s-.64,1,0,1h0Z"/>
  </g>
</svg>